:FULLY-SPECIFIED
:FORCE-ALL-JOINTS-BE-3DOF
:DEGREES
1529
root -4.45894 15.3216 20.0365 548.575 -14.8806 545.127
lfemur -39.0232 18.1651 -8.77713
ltibia 77.4413 0 0
lfoot -16.9215 24.8043 0
ltoes -26.5077 0 0
rfemur -40.7049 -0.99218 14.5273
rtibia 64.3334 0 0
rfoot -12.9408 -22.0827 0
rtoes -30.6144 0 0
lowerback 17.3152 0.731913 5.30705
upperback -1.39365 2.27274 3.83078
thorax -11.2672 0.780763 0.620135
lowerneck -4.63349 7.59632 3.87688
upperneck 1.59557 10.1469 -9.15882
head 2.07487 4.8681 -3.28872
lclavicle 3.77691e-15 2.3059e-14 0
lhumerus -15.6823 -26.6996 80.8089
lradius 85.9845 0 0
lwrist -15.0524 0 0
lhand -30.0409 71.1651 0
lfingers 7.12502 0 0
lthumb -3.35692 -101.118 0
rclavicle 3.77691e-15 2.3059e-14 0
rhumerus -52.327 35.555 -91.3912
rradius 107.237 0 0
rwrist -53.5546 0 0
rhand 15.1559 -26.124 0
rfingers 7.12502 0 0
rthumb 39.9984 -51.3505 0
1530
root -4.44989 15.3256 20.0573 548.282 -17.7309 545.098
lfemur -38.7819 18.0807 -8.97969
ltibia 75.3549 0 0
lfoot -16.9789 24.8608 0
ltoes -26.9653 0 0
rfemur -40.0086 -1.48879 14.0509
rtibia 65.1274 0 0
rfoot -12.5644 -22.6538 0
rtoes -31.0488 0 0
lowerback 17.2957 0.75359 5.14247
upperback -1.34161 2.26573 3.69009
thorax -11.1967 0.792535 0.557268
lowerneck -4.78933 7.05737 3.77972
upperneck 1.39921 9.40031 -8.58263
head 1.9409 4.51438 -3.10941
lclavicle 7.55382e-15 2.06736e-14 0
lhumerus -14.6404 -20.2932 79.3915
lradius 76.6964 0 0
lwrist -14.1105 0 0
lhand -30.2428 69.9094 0
lfingers 7.12502 0 0
lthumb -3.55189 -99.8596 0
rclavicle 7.55382e-15 2.06736e-14 0
rhumerus -53.6557 33.4224 -92.0423
rradius 106.788 0 0
rwrist -54.5418 0 0
rhand 14.4139 -25.8397 0
rfingers 7.12502 0 0
rthumb 39.2997 -51.2732 0
1531
root -4.45661 15.3324 20.073 547.989 -20.9341 544.866
lfemur -38.4584 17.9675 -9.25131
ltibia 73.2391 0 0
lfoot -16.9765 24.8267 0
ltoes -27.4379 0 0
rfemur -39.2538 -2.0271 13.5345
rtibia 66.0456 0 0
rfoot -12.2044 -23.2 0
rtoes -31.3716 0 0
lowerback 17.273 0.693686 4.87489
upperback -1.32235 2.134 3.57197
thorax -11.1691 0.751998 0.610919
lowerneck -4.842 6.508 3.44305
upperneck 1.31238 8.65902 -7.8065
head 1.80627 4.16558 -2.82061
lclavicle 1.07344e-14 3.4191e-14 0
lhumerus -12.9149 -13.8049 78.4313
lradius 67.5676 0 0
lwrist -12.5407 0 0
lhand -33.7408 67.7465 0
lfingers 7.12502 0 0
lthumb -6.92934 -97.6131 0
rclavicle 1.07344e-14 3.4191e-14 0
rhumerus -55.1178 31.3983 -92.5923
rradius 106.321 0 0
rwrist -55.5287 0 0
rhand 13.8429 -26.5892 0
rfingers 7.12502 0 0
rthumb 38.7614 -52.1772 0
1532
root -4.4718 15.3435 20.0828 547.709 -24.0063 544.757
lfemur -38.0609 17.8284 -9.58507
ltibia 71.1232 0 0
lfoot -16.9696 24.7279 0
ltoes -27.9204 0 0
rfemur -38.4536 -2.59785 12.987
rtibia 67.0688 0 0
rfoot -11.8649 -23.7151 0
rtoes -31.5727 0 0
lowerback 17.1529 0.713425 4.52244
upperback -1.30283 2.08962 3.58886
thorax -11.0912 0.759682 0.839779
lowerneck -4.90625 5.94287 3.00132
upperneck 1.34358 7.91134 -7.10161
head 1.72121 3.80688 -2.53618
lclavicle 1.11319e-14 -4.05521e-14 0
lhumerus -11.5506 -7.93415 77.7487
lradius 60.8299 0 0
lwrist -12.9149 0 0
lhand -37.7808 69.3439 0
lfingers 7.12502 0 0
lthumb -10.8278 -99.0448 0
rclavicle 1.11319e-14 -4.05521e-14 0
rhumerus -56.4417 29.5409 -92.8419
rradius 105.795 0 0
rwrist -56.9137 0 0
rhand 12.527 -27.6588 0
rfingers 7.12502 0 0
rthumb 37.519 -53.5873 0
1533
root -4.50539 15.3614 20.0866 547.637 -27.4267 544.433
lfemur -37.5975 17.6663 -9.97409
ltibia 69.0368 0 0
lfoot -16.9584 24.5696 0
ltoes -28.4079 0 0
rfemur -37.6209 -3.19177 12.4173
rtibia 68.1779 0 0
rfoot -11.55 -24.1929 0
rtoes -31.642 0 0
lowerback 16.6943 0.592089 4.13883
upperback -1.2626 1.82717 3.55535
thorax -10.7948 0.670033 1.08814
lowerneck -4.87994 5.3698 2.62462
upperneck 1.25449 7.14636 -6.44874
head 1.59616 3.44163 -2.2851
lclavicle 2.82274e-14 1.11319e-14 0
lhumerus -10.5927 -1.97062 77.2202
lradius 56.102 0 0
lwrist -18.2951 0 0
lhand -38.5347 64.4429 0
lfingers 7.12502 0 0
lthumb -11.5549 -94.1044 0
rclavicle 2.82274e-14 1.11319e-14 0
rhumerus -57.5829 27.938 -92.9767
rradius 105.196 0 0
rwrist -58.3438 0 0
rhand 10.4483 -28.2168 0
rfingers 7.12502 0 0
rthumb 35.5514 -54.6423 0
1534
root -4.53833 15.3792 20.0803 547.722 -30.793 544.022
lfemur -37.0766 17.4841 -10.4114
ltibia 67.0093 0 0
lfoot -16.9434 24.3569 0
ltoes -28.8954 0 0
rfemur -36.7687 -3.7996 11.8342
rtibia 69.3539 0 0
rfoot -11.2637 -24.6272 0
rtoes -31.55 0 0
lowerback 16.1844 0.524106 3.50005
upperback -1.20955 1.59053 3.57097
thorax -10.46 0.606985 1.52519
lowerneck -4.80562 4.77477 2.3478
upperneck 0.892484 6.33753 -6.09375
head 1.39991 3.05021 -2.15324
lclavicle 5.80451e-14 4.37326e-14 0
lhumerus -10.234 3.35353 76.8702
lradius 53.7508 0 0
lwrist -25.8288 0 0
lhand -31.9097 71.5048 0
lfingers 7.12502 0 0
lthumb -5.16151 -101.422 0
rclavicle 5.80451e-14 4.37326e-14 0
rhumerus -58.8316 26.3651 -93.231
rradius 104.71 0 0
rwrist -59.5973 0 0
rhand 7.63495 -29.0801 0
rfingers 7.12502 0 0
rthumb 32.8799 -56.1055 0
1535
root -4.58704 15.3926 20.07 547.835 -34.2685 543.651
lfemur -36.5063 17.2846 -10.8902
ltibia 65.0702 0 0
lfoot -16.925 24.0951 0
ltoes -29.3779 0 0
rfemur -35.9099 -4.41205 11.2467
rtibia 70.5776 0 0
rfoot -11.0103 -25.0117 0
rtoes -31.2835 0 0
lowerback 15.5491 0.41882 2.97627
upperback -1.15657 1.32689 3.62369
thorax -10.0468 0.52163 1.94095
lowerneck -4.50836 4.19974 2.02506
upperneck 0.333349 5.55132 -5.72053
head 1.10793 2.67517 -2.00916
lclavicle -8.5875e-14 -4.13472e-14 0
lhumerus -10.4124 7.4665 76.689
lradius 53.2872 0 0
lwrist -31.3205 0 0
lhand -15.9989 88.5282 0
lfingers 7.12502 0 0
lthumb 10.2012 -118.261 0
rclavicle -8.5875e-14 -4.13472e-14 0
rhumerus -59.8566 25.1206 -93.1793
rradius 104.13 0 0
rwrist -61.3255 0 0
rhand 4.88009 -30.4177 0
rfingers 7.12502 0 0
rthumb 30.2556 -57.9584 0
1536
root -4.64665 15.3966 20.0575 548.12 -37.8291 543.315
lfemur -35.8949 17.0707 -11.4035
ltibia 63.2489 0 0
lfoot -16.9035 23.7892 0
ltoes -29.8505 0 0
rfemur -35.0577 -5.01988 10.6637
rtibia 71.83 0 0
rfoot -10.7937 -25.3402 0
rtoes -30.8563 0 0
lowerback 14.7917 0.263269 2.56411
upperback -1.19357 1.02508 3.72018
thorax -9.6566 0.409368 2.34601
lowerneck -4.43148 3.63889 1.60119
upperneck 0.0921966 4.80441 -5.35085
head 0.962266 2.31082 -1.83839
lclavicle 2.24627e-14 -1.03368e-14 0
lhumerus -10.7813 10.1676 76.6924
lradius 53.7202 0 0
lwrist -32.7251 0 0
lhand -32.6768 71.5932 0
lfingers 7.12502 0 0
lthumb -5.90222 -101.491 0
rclavicle 2.24627e-14 -1.03368e-14 0
rhumerus -61.0494 24.0029 -93.1697
rradius 103.561 0 0
rwrist -63.0086 0 0
rhand 3.48182 -31.8996 0
rfingers 7.12502 0 0
rthumb 28.9209 -59.677 0
1537
root -4.72005 15.4109 20.0436 548.137 -41.5275 543.2
lfemur -35.2506 16.8453 -11.9445
ltibia 61.5748 0 0
lfoot -16.8793 23.4446 0
ltoes -30.3081 0 0
rfemur -34.225 -5.6138 10.0939
rtibia 73.0918 0 0
rfoot -10.6182 -25.6066 0
rtoes -30.2825 0 0
lowerback 14.1965 0.10763 2.40431
upperback -1.21515 0.778536 3.91098
thorax -9.33787 0.306361 2.69384
lowerneck -4.50255 3.00785 1.18334
upperneck 0.0257016 3.97245 -5.0785
head 0.904603 1.89759 -1.69807
lclavicle -6.77856e-14 2.62396e-14 0
lhumerus -11.0849 10.4446 76.99
lradius 54.4314 0 0
lwrist -29.8334 0 0
lhand -30.5613 47.4884 0
lfingers 7.12502 0 0
lthumb -3.85949 77.4332 0
rclavicle -6.77856e-14 2.62396e-14 0
rhumerus -62.2276 22.7601 -93.0959
rradius 103.023 0 0
rwrist -64.6718 0 0
rhand 2.16886 -33.7709 0
rfingers 7.12502 0 0
rthumb 27.6661 -61.7563 0
1538
root -4.81086 15.4185 20.0337 548.202 -45.1196 543.162
lfemur -34.5816 16.6112 -12.5061
ltibia 60.0775 0 0
lfoot -16.8526 23.0662 0
ltoes -30.7458 0 0
rfemur -33.4248 -6.18455 9.54643
rtibia 74.3442 0 0
rfoot -10.4877 -25.8046 0
rtoes -29.5759 0 0
lowerback 13.5803 -0.0842963 2.39788
upperback -1.31728 0.512506 4.11229
thorax -9.09022 0.184714 2.96718
lowerneck -4.62369 2.44254 0.65848
upperneck 0.104835 3.24198 -4.73761
head 0.906756 1.53375 -1.51377
lclavicle 1.39149e-14 -3.02153e-14 0
lhumerus -11.129 8.97808 77.4756
lradius 55.477 0 0
lwrist -26.109 0 0
lhand -30.6213 54.9959 0
lfingers 7.12502 0 0
lthumb -3.9174 84.9396 0
rclavicle 1.39149e-14 -3.02153e-14 0
rhumerus -63.3984 21.9368 -93.0138
rradius 102.528 0 0
rwrist -66.3385 0 0
rhand 0.0653425 -32.7236 0
rfingers 7.12502 0 0
rthumb 25.653 -61.0154 0
1539
root -4.91731 15.4304 20.0232 548.48 -48.5999 542.973
lfemur -33.8962 16.3714 -13.0816
ltibia 58.7864 0 0
lfoot -16.824 22.6595 0
ltoes -31.1586 0 0
rfemur -32.67 -6.72286 9.03005
rtibia 75.5679 0 0
rfoot -10.4064 -25.9279 0
rtoes -28.7506 0 0
lowerback 12.8924 -0.296661 2.32488
upperback -1.47593 0.206602 4.28663
thorax -8.85872 0.0466367 3.25233
lowerneck -4.83051 1.89421 -0.0184001
upperneck 0.266677 2.5471 -4.2268
head 0.951328 1.18823 -1.24967
lclavicle 1.19271e-14 3.02153e-14 0
lhumerus -11.0085 7.01193 77.8812
lradius 55.971 0 0
lwrist -22.991 0 0
lhand -32.8541 54.5965 0
lfingers 7.12502 0 0
lthumb -6.07335 84.4894 0
rclavicle 1.19271e-14 3.02153e-14 0
rhumerus -64.4295 21.3744 -92.9406
rradius 102.071 0 0
rwrist -67.7462 0 0
rhand -1.69498 -32.407 0
rfingers 7.12502 0 0
rthumb 23.9659 -60.9311 0
1540
root -5.03608 15.4225 20.026 549.205 -51.7827 542.521
lfemur -33.2025 16.1288 -13.6639
ltibia 57.7309 0 0
lfoot -16.7938 22.2294 0
ltoes -31.5415 0 0
rfemur -31.9737 -7.21947 8.55368
rtibia 76.7439 0 0
rfoot -10.3784 -25.9704 0
rtoes -27.8206 0 0
lowerback 12.0048 -0.382588 2.30629
upperback -1.75148 0.0681234 4.31033
thorax -8.64167 -0.0149957 3.30393
lowerneck -4.90722 1.2659 -0.53765
upperneck 0.443192 1.74008 -3.84574
head 0.98959 0.786879 -1.05988
lclavicle -4.65156e-14 3.49861e-14 0
lhumerus -10.7561 4.18363 78.3542
lradius 56.38 0 0
lwrist -21.2841 0 0
lhand -31.5277 47.3276 0
lfingers 7.12502 0 0
lthumb -4.79271 77.2534 0
rclavicle -4.65156e-14 3.49861e-14 0
rhumerus -65.3312 20.755 -92.8317
rradius 101.601 0 0
rwrist -68.3948 0 0
rhand -2.80459 -32.0557 0
rfingers 7.12502 0 0
rthumb 22.9015 -60.7157 0
1541
root -5.17273 15.4373 20.0437 550.416 -55.062 541.716
lfemur -32.5088 15.8861 -14.2463
ltibia 56.9405 0 0
lfoot -16.7622 21.7812 0
ltoes -31.8894 0 0
rfemur -31.3489 -7.6651 8.1262
rtibia 77.853 0 0
rfoot -10.3667 -25.8526 0
rtoes -26.7998 0 0
lowerback 10.9406 -0.638505 2.32396
upperback -2.07138 -0.302639 4.31065
thorax -8.35908 -0.192814 3.34625
lowerneck -5.10916 0.773716 -1.10806
upperneck 0.677241 1.12276 -3.45257
head 1.07765 0.477835 -0.855151
lclavicle 5.84427e-14 -4.77083e-15 0
lhumerus -10.4414 1.12149 78.7503
lradius 56.5575 0 0
lwrist -20.4005 0 0
lhand -31.3057 42.2228 0
lfingers 7.12502 0 0
lthumb -4.57837 72.1533 0
rclavicle 5.84427e-14 -4.77083e-15 0
rhumerus -66.1409 20.47 -93.1212
rradius 101.11 0 0
rwrist -68.829 0 0
rhand -4.51628 -30.8031 0
rfingers 7.12502 0 0
rthumb 21.2581 -59.6574 0
1542
root -5.30614 15.4605 20.0765 551.481 -57.805 540.786
lfemur -31.8234 15.6463 -14.8218
ltibia 56.4447 0 0
lfoot -16.7298 21.32 0
ltoes -32.1976 0 0
rfemur -30.8086 -8.0505 7.75651
rtibia 78.8762 0 0
rfoot -10.3328 -25.5106 0
rtoes -25.7022 0 0
lowerback 10.3916 -0.883232 2.19143
upperback -2.29781 -0.657521 4.37213
thorax -8.27029 -0.355838 3.54138
lowerneck -5.54992 0.413484 -1.80261
upperneck 1.04653 0.702129 -3.13343
head 1.25905 0.259419 -0.650459
lclavicle -3.22031e-14 4.13472e-14 0
lhumerus -10.1031 -1.41492 79.0505
lradius 56.3881 0 0
lwrist -20.1268 0 0
lhand -31.4603 34.3375 0
lfingers 7.12502 0 0
lthumb -4.72765 64.2648 0
rclavicle -3.22031e-14 4.13472e-14 0
rhumerus -66.5956 20.946 -93.3932
rradius 100.674 0 0
rwrist -68.4646 0 0
rhand -4.8016 -31.1505 0
rfingers 7.12502 0 0
rthumb 20.984 -60.0353 0
